Coordinates
version=1
nRows=11
nColumns=63
inDegrees=yes

Units are S.I. units (second, meters, Newtons, ...)
If the header above contains a line with 'inDegrees', this indicates whether rotational values are in degrees (yes) or radians (no).

endheader
time	pelvis_tilt	pelvis_list	pelvis_rotation	pelvis_tx	pelvis_ty	pelvis_tz	hip_flexion_r	hip_adduction_r	hip_rotation_r	knee_angle_r	knee_angle_r_beta	ankle_angle_r	subtalar_angle_r	mtp_angle_r	hip_flexion_l	hip_adduction_l	hip_rotation_l	knee_angle_l	knee_angle_l_beta	ankle_angle_l	subtalar_angle_l	mtp_angle_l	L5_S1_Flex_Ext	L5_S1_Lat_Bending	L5_S1_axial_rotation	L4_L5_Flex_Ext	L4_L5_Lat_Bending	L4_L5_axial_rotation	L3_L4_Flex_Ext	L3_L4_Lat_Bending	L3_L4_axial_rotation	L2_L3_Flex_Ext	L2_L3_Lat_Bending	L2_L3_axial_rotation	L1_L2_Flex_Ext	L1_L2_Lat_Bending	L1_L2_axial_rotation	L1_T12_Flex_Ext	L1_T12_Lat_Bending	L1_T12_axial_rotation	Abs_r3	Abs_r2	Abs_r1	Abs_t1	Abs_t2	neck_flexion	neck_bending	neck_rotation	arm_flex_r	arm_add_r	arm_rot_r	elbow_flex_r	pro_sup_r	wrist_flex_r	wrist_dev_r	arm_flex_l	arm_add_l	arm_rot_l	elbow_flex_l	pro_sup_l	wrist_flex_l	wrist_dev_l
      1.40000000	     -4.90026490	     -1.98212272	     96.12349934	      0.08846075	      0.46059543	      0.84630502	      4.05390509	     -0.30270822	    -10.85443267	      8.69661066	      0.15178449	     29.67239443	     17.84647459	      0.00000000	      6.63736400	      0.48764877	     -5.40922044	     12.43338733	      0.21700355	     27.19997947	      4.80885755	      0.00000000	      0.09334149	     -0.36516428	      0.41467140	      0.17334448	     -0.48566849	      0.44058836	      0.15335073	     -0.88786043	      0.44058836	      0.10667999	     -0.88786043	      0.36283748	      0.08667691	     -0.74464300	      0.33692051	      0.05333533	     -0.56563947	      0.31100355	      0.66672893	     -4.13081135	      2.30627793	      0.00000000	      0.00000000	     23.60073309	    -12.85341664	     12.71251651	     11.80217607	     -9.28359691	     51.35606538	     58.09895583	     71.05109961	     12.87730605	     22.33484376	     18.53628880	     -7.26277972	     82.82776864	     44.22514245	     25.50217373	      3.58086590	    -15.95095360
      1.41666667	     -4.85548016	     -1.92746578	     96.16999481	      0.08867187	      0.46095078	      0.84665851	      4.02313693	     -0.23842915	    -10.94451069	      8.69341062	      0.15172864	     29.60895476	     17.82539136	      0.00000000	      6.63361686	      0.36349671	     -5.75909518	     12.47169394	      0.21767212	     27.20519241	      5.41028445	      0.00000000	      0.07547966	     -0.35179121	      0.32347809	      0.14017328	     -0.46788231	      0.34369547	      0.12400554	     -0.85534515	      0.34369547	      0.08626571	     -0.85534515	      0.28304333	      0.07009042	     -0.71737264	      0.26282595	      0.04312908	     -0.54492459	      0.24260857	      0.53914369	     -3.97953253	      1.79908811	      0.00000000	      0.00000000	     23.78716094	    -13.12496795	     12.99098294	     12.44259419	     -9.12055832	     51.75819055	     57.73141685	     81.32863124	     16.29684016	     19.63914864	     18.20230539	     -7.49661364	     81.61631932	     44.53274850	     25.87403140	      3.14055394	    -16.53235556
      1.43333333	     -4.90280634	     -1.92069605	     96.12535847	      0.08890843	      0.46123058	      0.84690300	      4.06660152	     -0.29341674	    -10.98005785	      8.77109762	      0.15308453	     29.60262046	     17.85337760	      0.00000000	      6.62496460	      0.41103098	     -5.66579635	     12.43328571	      0.21700177	     27.07536536	      5.23867999	      0.00000000	      0.06184263	     -0.34815851	      0.27817365	      0.11484796	     -0.46305082	      0.29555951	      0.10160126	     -0.84651260	      0.29555951	      0.07067995	     -0.84651260	      0.24340195	      0.05742707	     -0.70996483	      0.22601609	      0.03533688	     -0.53929753	      0.20863024	      0.44173576	     -3.93843867	      1.54711841	      0.00000000	      0.00000000	     23.80590877	    -13.31315874	     13.20219778	     12.96753406	     -9.09150002	     52.50028288	     57.59479274	     85.93335386	     17.89284205	     18.53267004	     17.68789277	     -7.67258161	     79.73185591	     44.80586097	     27.23802393	      2.68475321	    -16.64255604
      1.45000000	     -4.93420932	     -1.88874737	     96.10049876	      0.08921554	      0.46153902	      0.84723885	      4.06799618	     -0.32779343	    -11.07004903	      8.82152181	      0.15396460	     29.53822876	     17.86166525	      0.00000000	      6.61687686	      0.42562401	     -5.62074161	     12.43312093	      0.21699890	     26.96430143	      5.14851572	      0.00000000	      0.04147160	     -0.34362422	      0.27211073	      0.07701690	     -0.45702022	      0.28911765	      0.06813368	     -0.83548793	      0.28911765	      0.04739789	     -0.83548793	      0.23809689	      0.03851052	     -0.70071851	      0.22108997	      0.02369687	     -0.53227392	      0.20408305	      0.29622746	     -3.88714592	      1.51339827	      0.00000000	      0.00000000	     23.62611895	    -13.33591965	     13.42129758	     13.40627144	     -9.16911846	     53.27327769	     57.59719047	     87.26385567	     18.44415451	     18.65253481	     17.50304001	     -7.75137510	     78.74880217	     45.02279928	     28.16695742	      2.04178232	    -16.95911884
      1.46666667	     -4.99813398	     -1.88311854	     96.06979169	      0.08958681	      0.46178619	      0.84746774	      4.10222241	     -0.40482372	    -11.24238256	      8.90907894	      0.15549276	     29.54558046	     17.95901049	      0.00000000	      6.59283926	      0.46132269	     -5.70429998	     12.37283019	      0.21594662	     26.84854835	      5.25410880	      0.00000000	      0.02577158	     -0.34692212	      0.32008833	      0.04786040	     -0.46140641	      0.34009385	      0.04234012	     -0.84350643	      0.34009385	      0.02945434	     -0.84350643	      0.28007729	      0.02393149	     -0.70744358	      0.26007177	      0.01472588	     -0.53738236	      0.24006625	      0.18408380	     -3.92445236	      1.78023526	      0.00000000	      0.00000000	     23.24865945	    -13.34014935	     13.28966976	     13.52868155	     -9.27465250	     53.46272631	     57.77132210	     87.72618984	     18.57301063	     19.26378980	     17.56464852	     -7.70425654	     78.48957570	     45.04328480	     29.16351379	      1.55912962	    -17.06363822
      1.48333333	     -5.06273337	     -1.90493406	     96.00251003	      0.08999989	      0.46190992	      0.84768423	      4.15570055	     -0.46541275	    -11.19922085	      8.94745924	      0.15616262	     29.44650955	     17.82548694	      0.00000000	      6.62970040	      0.46890924	     -6.08589331	     12.40551187	      0.21651703	     26.86399926	      5.68443650	      0.00000000	      0.01242312	     -0.35301070	      0.39358065	      0.02307098	     -0.46950423	      0.41817944	      0.02040995	     -0.85831022	      0.41817944	      0.01419838	     -0.85831022	      0.34438307	      0.01153611	     -0.71985942	      0.31978428	      0.00709857	     -0.54681358	      0.29518549	      0.08873711	     -3.99332766	      2.18897750	      0.00000000	      0.00000000	     22.87903970	    -13.21601017	     13.06781281	     13.32775041	     -9.24298233	     52.64246852	     57.96098677	     87.89641456	     19.57055632	     20.38478331	     17.56143101	     -7.56384792	     77.92811389	     44.83926053	     32.43584446	      0.87450647	    -16.70294847
      1.50000000	     -5.08056727	     -1.90017440	     96.05349803	      0.09014204	      0.46198319	      0.84792829	      4.17017534	     -0.49526151	    -11.37195245	      8.98052359	      0.15673971	     29.43464675	     17.86021150	      0.00000000	      6.65233188	      0.46220108	     -6.19061752	     12.43503773	      0.21703235	     26.87996266	      5.89406280	      0.00000000	     -0.00452366	     -0.35451739	      0.46091027	     -0.00840089	     -0.47150813	      0.48971716	     -0.00743192	     -0.86197358	      0.48971716	     -0.00517009	     -0.86197358	      0.40329649	     -0.00420067	     -0.72293186	      0.37448959	     -0.00258482	     -0.54914744	      0.34568270	     -0.03231205	     -4.01037163	      2.56344464	      0.00000000	      0.00000000	     22.54704193	    -13.23428525	     12.48901050	     13.00119690	     -9.27212393	     51.56419682	     58.29886893	     87.85444427	     20.16602975	     21.45178285	     17.88611474	     -7.31032540	     78.45076705	     44.43710222	     34.75713268	      0.51514327	    -16.53045926
      1.51666667	     -5.08084839	     -1.89575597	     96.03104519	      0.09020071	      0.46197183	      0.84819797	      4.20443061	     -0.51200254	    -11.44722469	      9.02556049	      0.15752575	     29.42165560	     17.89694136	      0.00000000	      6.65613526	      0.49330026	     -5.94473421	     12.42533533	      0.21686301	     26.83265428	      5.51082278	      0.00000000	     -0.01812158	     -0.35098503	      0.48768165	     -0.03365359	     -0.46681009	      0.51816176	     -0.02977195	     -0.85338500	      0.51816176	     -0.02071116	     -0.85338500	      0.42672145	     -0.01682770	     -0.71572867	      0.39624134	     -0.01035467	     -0.54367581	      0.36576124	     -0.12944066	     -3.97041286	      2.71233904	      0.00000000	      0.00000000	     22.34295731	    -13.18974337	     12.22562718	     12.96362655	     -9.28765752	     51.05245458	     58.55931223	     87.78478753	     20.63641690	     22.31766069	     17.95215765	     -7.08833175	     78.27702964	     44.00835946	     37.91354891	      0.31005573	    -16.05936388
      1.53333333	     -5.06382441	     -1.81316335	     95.92303887	      0.09038587	      0.46195900	      0.84845020	      4.15735386	     -0.48780296	    -11.31014338	      9.05072180	      0.15796490	     29.43477351	     17.86340479	      0.00000000	      6.59074913	      0.37403752	     -6.76277917	     12.48610250	      0.21792360	     27.04789725	      6.46174878	      0.00000000	     -0.04013899	     -0.34464379	      0.50692490	     -0.07454212	     -0.45837624	      0.53860770	     -0.06594435	     -0.83796690	      0.53860770	     -0.04587485	     -0.83796690	      0.44355929	     -0.03727307	     -0.70279761	      0.41187648	     -0.02293542	     -0.53385323	      0.38019367	     -0.28670881	     -3.89867945	      2.81936420	      0.00000000	      0.00000000	     22.29627753	    -13.48556633	     11.70487683	     13.06553750	     -9.32235229	     50.86295566	     58.69506025	     87.98427693	     20.89011812	     22.24420872	     18.08777249	     -6.90747374	     78.28341378	     43.62699758	     40.10857827	      0.35811492	    -15.53802193
      1.55000000	     -5.04438782	     -1.71128306	     95.75946160	      0.09047987	      0.46193089	      0.84874019	      4.03554379	     -0.44893186	    -11.23422665	      8.93850856	      0.15600640	     29.37853374	     18.05019189	      0.00000000	      6.42141685	      0.38897114	     -6.61829695	     12.35222003	      0.21558691	     27.05336278	      6.02580575	      0.00000000	     -0.06435657	     -0.33344864	      0.49350157	     -0.11951659	     -0.44348669	      0.52434542	     -0.10573141	     -0.81074702	      0.52434542	     -0.07355313	     -0.81074702	      0.43181388	     -0.05976151	     -0.67996846	      0.40097003	     -0.03677335	     -0.51651194	      0.37012618	     -0.45969257	     -3.77203767	      2.74470770	      0.00000000	      0.00000000	     22.41230092	    -13.88959279	     11.49944022	     13.45011704	     -9.45917213	     51.53863902	     58.80787918	     87.94343544	     20.14978420	     21.83865647	     18.12497045	     -6.86583151	     77.94676743	     43.71765878	     40.65315444	      0.12079337	    -14.28423366
      1.56666667	     -4.89125642	     -1.71452333	     95.99141946	      0.08983620	      0.46166361	      0.84909451	      4.12357423	     -0.33301002	    -11.41135605	      9.08538723	      0.15856992	     29.47297884	     17.98528006	      0.00000000	      6.55795690	      0.25965267	     -6.34957235	     12.53479072	      0.21877337	     27.21032510	      6.00845698	      0.00000000	     -0.06771781	     -0.30382702	      0.37020102	     -0.12575875	     -0.40408994	      0.39333859	     -0.11125359	     -0.73872502	      0.39333859	     -0.07739469	     -0.73872502	      0.32392589	     -0.06288276	     -0.61956406	      0.30078833	     -0.03869396	     -0.47062806	      0.27765077	     -0.48370155	     -3.43695203	      2.05894702	      0.00000000	      0.00000000	     22.64446613	    -14.04928941	     11.85716385	     13.96006680	     -9.42693735	     52.14926285	     58.65593204	     88.40400702	     20.96914974	     21.70541276	     17.90869848	     -6.77261969	     77.04125447	     43.63963698	     41.41553736	     -0.09653519	    -13.73505034
